<svg xmlns="http://www.w3.org/2000/svg" xmlns:se="http://svg-edit.googlecode.com" xmlns:xlink="http://www.w3.org/1999/xlink" xmlns:dc="http://purl.org/dc/elements/1.1/" xmlns:cc="http://creativecommons.org/ns#" xmlns:rdf="http://www.w3.org/1999/02/22-rdf-syntax-ns#" xmlns:inkscape="http://www.inkscape.org/namespaces/inkscape" width="158" height="212.92473119106563">                                    <title>my vector image</title>                                    <!-- Created with Vector Paint - http://www.vectorpaint.yaks.com/ https://chrome.google.com/webstore/detail/hnbpdiengicdefcjecjbnjnoifekhgdo -->                                    <rect id="backgroundrect" width="100%" height="100%" x="0" y="0" fill="#FFFFFF" stroke="none" style="" class="" opacity="0"/>                                <g class="currentLayer" style=""><title>Layer 1</title><path fill="#e98a8a" stroke="#e98a8a" stroke-width="2" stroke-linejoin="round" stroke-dashoffset="" fill-rule="nonzero" marker-start="" marker-mid="" marker-end="" id="svg_9" d="M12.586164467335948,212.49441904003407 C1.4642498773702641,210.33962315249022 -2.370921358924761,195.28637972512928 4.25992575771437,186.26785553798322 C13.0598988983553,172.32009212437788 31.883889462682532,162.91755767349434 46.63270723891861,171.718247458547 C46.926653759979786,122.6025724582646 46.75700284903132,73.4842196016588 46.80196139843713,24.367354443009646 C83.57728775947248,16.418917226828682 120.43212310683413,8.8792852403123 157.22136883050098,0.999997641963148 C157.141701143604,56.04779739773059 157.06202684417212,111.0956184063215 156.98235915727412,166.14339690925766 C151.21896275201726,182.79316693988937 132.59598629908476,194.33875154874505 116.38012721470727,189.17592957469225 C106.72600114808216,186.07988844342083 104.41153846318457,172.72955619170978 109.78736162271434,164.54960483652064 C117.14901164613264,152.3476833110003 130.85088836460022,143.96999564467478 144.62570122072952,146.25554601397386 C148.55664163941208,145.82952599367553 154.34521853534892,152.64771656728067 152.68375580205736,144.93459774630503 C152.68375580205736,106.34908265737147 152.68375580205736,67.76358173699103 152.68375580205736,29.178087900886993 C118.92556535639426,36.45861957773343 85.10064793293179,43.39333232264647 51.32683870601517,50.59507268204797 C51.21154935333004,95.49690698137533 51.6138156269858,140.40556343847436 51.02592919737714,185.30189325536526 C49.95123537716893,198.93903950437942 37.73289821375033,208.24303167638993 26.327279902109126,211.87815078831102 C21.821526013398397,212.69219077255514 17.12996681806385,213.1973067341561 12.58617107985549,212.4944119557615 L12.586164467335948,212.49441904003407 zM100.64782877174576,29.43033063140757 C117.9929085476864,25.773399033745477 135.34616140307264,22.160382862877555 152.6837491895344,18.462929206610056 C154.89018968540762,9.045779894377176 145.01568142513213,15.161550336077283 140.18656850943427,15.391442175877899 C110.57084650671356,21.654749749121237 80.93801790488152,27.8253312340712 51.32683209349216,34.11296621102801 C49.12039159761582,43.530115523253784 58.99489324536694,37.414345081559134 63.82400616106452,37.18445324175232 C76.09738597270575,34.59299675138806 88.37237262762847,32.01040269027436 100.64782877174576,29.430323547129944 L100.64782877174576,29.43033063140757 z" style="color: rgb(231, 103, 103);" class=""/></g></svg>