<?xml version="1.0" standalone="no"?>
<!DOCTYPE svg PUBLIC "-//W3C//DTD SVG 20010904//EN"
 "http://www.w3.org/TR/2001/REC-SVG-20010904/DTD/svg10.dtd">
<svg version="1.0" xmlns="http://www.w3.org/2000/svg"
 width="315.000000pt" height="320.000000pt" viewBox="0 0 315.000000 320.000000"
 preserveAspectRatio="xMidYMid meet">

<g transform="translate(0.000000,320.000000) scale(0.100000,-0.100000)"
fill="#000000" stroke="none">
<path d="M2815 3103 c-176 -51 -337 -98 -357 -103 l-38 -11 0 -112 c0 -62 -3
-196 -7 -298 l-6 -186 -41 10 c-76 17 -165 -22 -213 -94 -24 -36 -28 -53 -28
-109 0 -57 5 -74 30 -115 68 -110 223 -128 318 -37 60 57 60 59 65 407 l4 320
227 64 c124 36 232 66 239 69 9 3 12 -34 12 -163 l0 -166 -43 6 c-118 18 -223
-61 -243 -182 -23 -149 132 -271 279 -219 48 17 72 39 109 95 l28 45 0 432 c0
238 -3 435 -7 437 -5 2 -152 -38 -328 -90z"/>
<path d="M1334 3070 c-323 -46 -621 -191 -857 -419 -238 -231 -377 -482 -449
-815 -32 -146 -32 -446 0 -592 31 -145 65 -243 132 -380 79 -161 162 -276 295
-409 519 -522 1324 -600 1942 -189 141 93 306 253 402 389 73 104 169 294 206
409 94 294 98 628 9 933 l-15 53 -65 0 c-81 0 -151 26 -215 80 -54 46 -59 47
-59 20 0 -46 -43 -132 -91 -181 -131 -134 -328 -140 -467 -14 -51 45 -98 138
-107 209 -20 156 105 327 263 361 l32 7 0 179 0 180 -92 43 c-114 53 -228 91
-350 117 -105 23 -409 34 -514 19z m246 -590 c11 -11 20 -28 20 -38 0 -36 -33
-51 -140 -66 -58 -8 -136 -25 -175 -36 -209 -65 -393 -224 -490 -425 -48 -100
-70 -179 -84 -305 -7 -68 -14 -88 -31 -102 -29 -23 -45 -23 -71 3 -20 20 -21
29 -16 118 21 343 250 657 581 799 156 66 365 93 406 52z m-825 -85 c14 -13
25 -28 25 -34 0 -5 -16 -29 -35 -53 -93 -114 -138 -179 -174 -248 -75 -143
-118 -293 -128 -443 -5 -89 -8 -100 -31 -117 -32 -25 -47 -25 -73 1 -20 20
-21 28 -15 123 11 177 53 325 138 489 72 138 211 307 253 307 9 0 27 -11 40
-25z m891 -304 c137 -26 253 -100 341 -216 162 -215 146 -512 -38 -710 -71
-75 -136 -119 -225 -151 -54 -20 -84 -24 -183 -24 -171 0 -266 37 -383 148
-67 64 -108 124 -143 211 -23 56 -26 77 -26 191 0 112 3 136 25 194 66 174
207 302 387 350 63 17 175 20 245 7z m830 -506 c28 -44 -1 -244 -57 -384 -54
-136 -165 -293 -231 -327 -27 -14 -32 -14 -54 1 -43 28 -34 55 52 162 96 118
156 265 175 429 6 54 17 109 25 122 20 31 68 30 90 -3z m265 -6 c19 -19 20
-28 14 -102 -26 -326 -136 -569 -360 -792 -227 -228 -498 -348 -804 -357 -72
-3 -84 0 -97 16 -18 25 -18 61 0 79 9 9 47 17 98 21 183 16 373 75 520 162
114 67 287 239 356 353 95 156 144 306 162 489 6 62 16 115 25 129 19 29 58
30 86 2z"/>
<path d="M1510 1633 c-28 -10 -59 -45 -65 -74 -11 -48 23 -92 86 -112 26 -8
77 20 94 53 38 74 -38 161 -115 133z"/>
</g>
</svg>
