<svg xmlns="http://www.w3.org/2000/svg" xmlns:se="http://svg-edit.googlecode.com" xmlns:xlink="http://www.w3.org/1999/xlink" xmlns:dc="http://purl.org/dc/elements/1.1/" xmlns:cc="http://creativecommons.org/ns#" xmlns:rdf="http://www.w3.org/1999/02/22-rdf-syntax-ns#" xmlns:inkscape="http://www.inkscape.org/namespaces/inkscape" width="150" height="148" style="">                                    <title>my vector image</title>                                    <!-- Created with Vector Paint - http://www.vectorpaint.yaks.com/ https://chrome.google.com/webstore/detail/hnbpdiengicdefcjecjbnjnoifekhgdo -->                                    <rect id="backgroundrect" width="100%" height="100%" x="0" y="0" fill="#FFFFFF" stroke="none" style="" class="" opacity="0"/>                                <g class="currentLayer" style=""><title>Layer 1</title><g class=""><path fill="#ffffff" fill-opacity="1" stroke="#ecabab" stroke-opacity="1" stroke-width="2" stroke-dasharray="none" stroke-linejoin="round" stroke-linecap="butt" stroke-dashoffset="" fill-rule="nonzero" opacity="1" marker-start="" marker-mid="" marker-end="" d="M-9.247742016604832e-9,73.98387134075165 C-9.247742016604832e-9,33.10880430166233 33.60684428949958,0 75.09677552252106,0 C116.58670675554248,0 150.19355105428986,33.10880430166233 150.19355105428986,73.98387134075165 C150.19355105428986,114.85893837984099 116.58670675554248,147.9677426815033 75.09677552252106,147.9677426815033 C33.60684428949958,147.9677426815033 -9.247742016604832e-9,114.85893837984099 -9.247742016604832e-9,73.98387134075165 z" id="svg_6" class="" filter=""/><path fill="#ffffff" stroke="#ecabab" stroke-width="1" stroke-linejoin="round" stroke-dashoffset="" fill-rule="nonzero" marker-start="" marker-mid="" marker-end="" d="M94.58518729141383,49.19618265006574 C93.32356666421856,49.00476655176658 92.88852186133033,47.667547959386866 93.64069572766294,46.8664091033622 C94.63892562262959,45.62739316312343 96.7742355631982,44.79214168101748 98.44727599007285,45.57392974304699 C98.48061997875845,41.21085715310528 98.46137553240749,36.847546682252755 98.46647543070605,32.48436836746106 C102.63810522822217,31.778288107938607 106.81875417225376,31.108523075523976 110.99196292048998,30.408585555609648 C110.98292577168866,35.29862414816941 110.97388787279192,40.18866462867152 110.96485072398787,45.07870133328828 C110.31107661623219,46.557743517866356 108.1985688242749,47.5833676947006 106.35911374277191,47.12474085018181 C105.26399253097975,46.84971149963167 105.00145015659376,45.66376691648702 105.61125967557393,44.937120656516356 C106.44633258002784,43.85319237186471 108.00061266008908,43.10898068335871 109.56316629188291,43.31201204084556 C110.0090747257583,43.27416757931121 110.66570519661286,43.879845102923184 110.47723623844104,43.19466878577913 C110.47723623844104,39.767017567457856 110.47723623844104,36.33936760776663 110.47723623844104,32.911718277391174 C106.64785694780426,33.558466758387624 102.81090844496384,34.174495248197786 98.97975742910319,34.81424449244082 C98.96667951664148,38.8029907016371 99.01231081729247,42.79234294077466 98.94562359001065,46.78060017254302 C98.82371509300418,47.99202318574177 97.43772115547779,48.81852090205072 96.14391843729447,49.14143794550492 C95.63280571465202,49.21375122517361 95.1006160627121,49.258621983986444 94.58518804150901,49.19618202075134 L94.58518729141383,49.19618265006574 zM104.57451163417886,32.9341256522988 C106.5420604989585,32.609270949254096 108.51053648159944,32.28831736728662 110.47723548834591,31.9598629848484 C110.72752430505506,31.123313226764452 109.60740391537036,31.666592951219798 109.05961077991435,31.68701483862816 C105.70013472336882,32.24340066850891 102.33871817014705,32.79154939986398 98.9797566790113,33.35009629600842 C98.7294678622992,34.186646054092705 99.84958750189173,33.64336632963858 100.39738063734484,33.62294444222755 C101.78961836858787,33.39273865189631 103.18203837299745,33.16332013410283 104.57451163417886,32.934125022984205 L104.57451163417886,32.9341256522988 z" style="color: rgb(0, 0, 0);" class="" stroke-opacity="1" id="svg_14" filter=""/><path fill="url(#svg_2)" stroke="#ecabab" stroke-width="2" stroke-linejoin="round" stroke-dashoffset="" fill-rule="nonzero" marker-start="" marker-mid="" marker-end="" id="svg_10" d="M55.02779823269424,99.88828273555706 L84.75901194437768,42.06121517504994 L114.49022565606072,99.88828273555706 L55.02779823269424,99.88828273555706 z" style="color: rgb(0, 0, 0);" class="" transform="rotate(89.28754425048828 84.759033203125,70.97473907470702) " stroke-opacity="1" fill-opacity="0.17" filter=""/></g></g><defs><linearGradient id="svg_2"><stop stop-color="#dadada" stop-opacity="1" offset="0"/><stop stop-color="#252525" stop-opacity="1" offset="1"/><stop stop-color="#252525" stop-opacity="1" offset="1"/><stop stop-color="#252525" stop-opacity="1" offset="1"/></linearGradient><filter id="f002" inkscape:label="Smart jelly" inkscape:menu="Bevels" inkscape:menu-tooltip="Same as Matte jelly but with more controls" height="1" width="1" y="0" x="0" color-interpolation-filters="sRGB">
            <feBlend result="result3" mode="normal" in2="result91"/>
            <feComposite result="result4" operator="arithmetic" k2="1" in2="result3"/>
            <feColorMatrix id="feColorMatrix3006" in="result4" result="result0" values="1 0 0 0 0 0 1 0 0 0 0 0 1 0 0 0 0 0 0.85 0 "/>
            <feGaussianBlur stdDeviation="7" in="SourceAlpha"/>
            <feSpecularLighting result="result1" specularExponent="25" specularConstant="1" surfaceScale="5">
                <feDistantLight azimuth="225" elevation="60"/>
            </feSpecularLighting>
            <feComposite in2="result0" k1=".5" k2="1" operator="arithmetic" k3=".5"/>
            <feComposite result="result2" in2="result0" operator="atop"/>
            <feComposite operator="in" in2="SourceGraphic"/>
        </filter><filter id="f008" inkscape:label="Jigsaw piece" inkscape:menu="Bevels" inkscape:menu-tooltip="Low, sharp bevel" color-interpolation-filters="sRGB">
            <feSpecularLighting in="SourceAlpha" surfaceScale="1" specularConstant="2" specularExponent="18.5">
                <feDistantLight elevation="30" azimuth="225"/>
            </feSpecularLighting>
            <feComposite result="result0" operator="atop" in2="SourceGraphic"/>
            <feMorphology radius="2" result="result1" in="SourceAlpha" operator="dilate"/>
            <feComposite in="result0" in2="result1"/>
        </filter></defs></svg>