<svg xmlns="http://www.w3.org/2000/svg" xmlns:se="http://svg-edit.googlecode.com" xmlns:xlink="http://www.w3.org/1999/xlink" xmlns:dc="http://purl.org/dc/elements/1.1/" xmlns:cc="http://creativecommons.org/ns#" xmlns:rdf="http://www.w3.org/1999/02/22-rdf-syntax-ns#" xmlns:inkscape="http://www.inkscape.org/namespaces/inkscape" width="492" height="261" style="">                                    <title>my vector image</title>                                    <!-- Created with Vector Paint - http://www.vectorpaint.yaks.com/ https://chrome.google.com/webstore/detail/hnbpdiengicdefcjecjbnjnoifekhgdo -->                                    <rect id="backgroundrect" width="100%" height="100%" x="0" y="0" fill="#FFFFFF" stroke="none" style="" class="" opacity="0"/>                                <g class="currentLayer" style=""><title>Layer 1</title><g class="" id="svg_1"><path fill="#e98a8a" fill-opacity="1" stroke="#e98a8a" stroke-opacity="1" stroke-width="2" stroke-dasharray="none" stroke-linejoin="round" stroke-linecap="butt" stroke-dashoffset="" fill-rule="nonzero" opacity="1" marker-start="" marker-mid="" marker-end="" d="M2.274846977456946e-13,234.99999928474426 C2.274846977456946e-13,220.91160188985793 12.306629572707436,209.5 27.499999415555862,209.5 C42.69336925840426,209.5 54.99999883111147,220.91160188985793 54.99999883111147,234.99999928474426 C54.99999883111147,249.0883966796306 42.69336925840426,260.4999985694885 27.499999415555862,260.4999985694885 C12.306629572707436,260.4999985694885 2.274846977456946e-13,249.0883966796306 2.274846977456946e-13,234.99999928474426 z" class="" id="svg_5"/><rect fill="#e98a8a" stroke="#e98a8a" stroke-width="2" stroke-linejoin="round" stroke-dashoffset="" fill-rule="nonzero" id="svg_3" x="73.5" y="212.50000000000034" width="418" height="44.999996185302734" style="color: rgb(0, 0, 0);" class=""/></g><g class="" id="svg_9"><path fill="#e98a8a" fill-opacity="1" stroke="#e98a8a" stroke-opacity="1" stroke-width="2" stroke-dasharray="none" stroke-linejoin="round" stroke-linecap="butt" stroke-dashoffset="" fill-rule="nonzero" opacity="1" marker-start="" marker-mid="" marker-end="" d="M2.2737367544323206e-13,130.49999928474426 C2.2737367544323206e-13,116.41160188985793 12.306629572707436,105 27.499999415555862,105 C42.69336925840426,105 54.99999883111147,116.41160188985793 54.99999883111147,130.49999928474426 C54.99999883111147,144.5883966796306 42.69336925840426,155.99999856948853 27.499999415555862,155.99999856948853 C12.306629572707436,155.99999856948853 2.2737367544323206e-13,144.5883966796306 2.2737367544323206e-13,130.49999928474426 z" class="" id="svg_10"/><rect fill="#e98a8a" stroke="#e98a8a" stroke-width="2" stroke-linejoin="round" stroke-dashoffset="" fill-rule="nonzero" id="svg_11" x="73.5" y="108.00000000000034" width="418" height="44.999996185302734" style="color: rgb(0, 0, 0);" class=""/></g><g class="" id="svg_12"><path fill="#e98a8a" fill-opacity="1" stroke="#e98a8a" stroke-opacity="1" stroke-width="2" stroke-dasharray="none" stroke-linejoin="round" stroke-linecap="butt" stroke-dashoffset="" fill-rule="nonzero" opacity="1" marker-start="" marker-mid="" marker-end="" d="M2.274846977456946e-13,25.499999284744263 C2.274846977456946e-13,11.411601889857934 12.306629572707436,0 27.499999415555862,0 C42.69336925840426,0 54.99999883111147,11.411601889857934 54.99999883111147,25.499999284744263 C54.99999883111147,39.58839667963059 42.69336925840426,50.999998569488525 27.499999415555862,50.999998569488525 C12.306629572707436,50.999998569488525 2.274846977456946e-13,39.58839667963059 2.274846977456946e-13,25.499999284744263 z" class="" id="svg_13"/><rect fill="#e98a8a" stroke="#e98a8a" stroke-width="2" stroke-linejoin="round" stroke-dashoffset="" fill-rule="nonzero" id="svg_14" x="73.5" y="2.9999985694888665" width="418" height="44.999996185302734" style="color: rgb(0, 0, 0);" class=""/></g></g></svg>