<svg xmlns="http://www.w3.org/2000/svg" xmlns:se="http://svg-edit.googlecode.com" xmlns:xlink="http://www.w3.org/1999/xlink" xmlns:dc="http://purl.org/dc/elements/1.1/" xmlns:cc="http://creativecommons.org/ns#" xmlns:rdf="http://www.w3.org/1999/02/22-rdf-syntax-ns#" xmlns:inkscape="http://www.inkscape.org/namespaces/inkscape" width="300" height="253" style="">                                    <title>my vector image</title>                                    <!-- Created with Vector Paint - http://www.vectorpaint.yaks.com/ https://chrome.google.com/webstore/detail/hnbpdiengicdefcjecjbnjnoifekhgdo -->                                    <rect id="backgroundrect" width="100%" height="100%" x="0" y="0" fill="#FFFFFF" stroke="none" style="" class="" opacity="0"/>                                <g class="currentLayer" style=""><title>Layer 1</title><g class="" stroke="#e98a8a" stroke-opacity="1" fill="#e98a8a" fill-opacity="1"><path fill="#e98a8a" stroke-dashoffset="" fill-rule="nonzero" marker-start="" marker-mid="" marker-end="" id="svg_5" d="M60.48083000000001,70.70295999999999 L158.44277,8.049116928532385e-16 L158.44277,252.57142 L60.48083000000001,182.29438 L60.48083000000001,70.70295999999999 M-2.541098846811611e-20,70.70295999999999 L60.48083000000001,70.70295999999999 L60.48083000000001,182.29438 L-2.541098846811611e-20,182.29438 L-2.541098846811611e-20,70.70295999999999 zL135.62712,117.92858 " style="color: rgb(0, 0, 0);" class="" fill-opacity="1" stroke="#e98a8a" stroke-opacity="1"/><path fill="#e98a8a" fill-opacity="1" stroke="#e98a8a" stroke-opacity="1" stroke-width="1" stroke-dasharray="none" stroke-linejoin="miter" stroke-linecap="butt" stroke-dashoffset="" fill-rule="nonzero" opacity="1" marker-start="" marker-mid="" marker-end="" id="svg_3" d="M184.2824056912667,126.2857115083313 " style="color: rgb(0, 0, 0);" class=""/><path fill="#e98a8a" stroke-dashoffset="" fill-rule="nonzero" marker-start="" marker-mid="" marker-end="" id="svg_6" d="M152.28537230952688,154.8571528171895 L152.28537230952688,154.8571528171895 C152.28537230952688,123.29801036015954 176.20593922675388,97.7142790386888 205.71345572644063,97.7142790386888 C235.22096864035697,97.7142790386888 259.14153914335986,123.29801036015954 259.14153914335986,154.8571528171895 L232.4274974348991,154.8571528171895 C232.4274974348991,139.07758158867443 220.4672085976205,126.28571592793872 205.71345572644063,126.28571592793872 C190.9597028552606,126.28571592793872 178.9994140179882,139.07758158867443 178.9994140179882,154.8571528171895 L152.28537230952688,154.8571528171895 z" style="color: rgb(0, 0, 0);" class="" transform="rotate(89.89788818359375 205.71343994140625,126.28572082519533) " stroke="#e98a8a" stroke-opacity="1" fill-opacity="1"/><path fill="#e98a8a" stroke-dashoffset="" fill-rule="nonzero" marker-start="" marker-mid="" marker-end="" d="M152.43852010162354,173.1942658605957 L152.43852010162354,173.1942658605957 C152.43852010162354,115.05912586059571 199.54803010162354,78.21699586059572 257.68316010162357,78.21699586059572 C315.8182901016235,78.21699586059572 362.9644601016235,115.05912586059571 362.9644601016235,173.1942658605957 L320.0452101016236,174.3544358605957 C320.0452101016236,145.2868658605957 286.7690501016236,120.5627758605957 257.70149010162356,120.5627758605957 C228.63394010162355,120.5627758605957 195.9281801016235,143.5389758605957 195.9281801016235,172.6065458605957 L152.43852010162354,173.1942658605957 z" style="color: rgb(0, 0, 0);" class="" transform="rotate(89.89788818359375 257.7015380859375,120.56275939941405) " id="svg_1" stroke="#e98a8a" stroke-opacity="1" fill-opacity="1"/></g></g></svg>